<svg height="1024" width="1024" xmlns="http://www.w3.org/2000/svg"><path d="M512 0C229.2 0 0 229.3 0 512c0 226.3 146.7 418 350.2 485.8 25.6 4.7 35-11 35-24.6 0-12.2-.6-52.6-.8-95.3C242 908.7 212 817.4 212 817.4c-23.4-59-57-75-57-75-46.5-31.6 3.6-31 3.6-31C210 715 237 764.3 237 764.3c45.8 78.2 120 55.6 149 42.5 4.7-33 18-55.7 32.6-68.4-113.7-13-233.3-57-233.3-253 0-56 20-101.6 52.7-137.5-5.2-13-22.8-65.2 5-135.7 0 0 43-13.7 141 52.5 40.7-11.4 84.5-17 128-17.2 43.5.2 87.3 6 128.2 17.3C738 198.5 781 212.3 781 212.3 809 283 791.2 335 786 348c32.8 35.8 52.6 81.4 52.6 137.3 0 196.7-119.7 240-233.8 252.7 18.5 16 34.8 47 34.8 94.8 0 68.4-.7 123.6-.7 140.5 0 13.6 9.2 29.5 35 24.5C877.5 930 1024 738 1024 512 1024 229.2 794.7 0 512 0z"/></svg>