<svg xmlns="http://www.w3.org/2000/svg" width="168" height="168"><path fill="#41B074" fill-rule="evenodd" d="M133.28 74.24c-26.994-16.031-71.52-17.505-97.289-9.684-4.139 1.256-8.515-1.08-9.769-5.218-1.254-4.141 1.08-8.514 5.221-9.772 29.581-8.979 78.756-7.245 109.832 11.202 3.722 2.21 4.943 7.017 2.737 10.733-2.208 3.722-7.019 4.949-10.732 2.739zm-.884 23.744c-1.894 3.073-5.912 4.037-8.981 2.15-22.505-13.833-56.822-17.841-83.447-9.759-3.453 1.043-7.099-.903-8.148-4.35-1.04-3.452.907-7.092 4.354-8.142 30.415-9.23 68.226-4.76 94.074 11.125 3.069 1.89 4.035 5.91 2.148 8.976zm-10.247 22.803c-1.505 2.468-4.718 3.241-7.177 1.737-19.665-12.019-44.417-14.733-73.567-8.075-2.809.644-5.609-1.116-6.25-3.925-.643-2.808 1.111-5.608 3.926-6.249 31.9-7.292 59.263-4.154 81.336 9.334 2.461 1.503 3.236 4.718 1.732 7.178zM83.743 0C37.494 0 0 37.493 0 83.742c0 46.254 37.494 83.744 83.743 83.744 46.251 0 83.743-37.49 83.743-83.744C167.486 37.493 129.994 0 83.743 0z"/></svg>
